<svg width="61" height="61" viewBox="0 0 61 61" fill="none" xmlns="http://www.w3.org/2000/svg">
<path fill-rule="evenodd" clip-rule="evenodd" d="M33.0088 48.9985C34.6001 48.9985 36.1262 49.6307 37.2514 50.7559C38.3766 51.8811 39.0088 53.4072 39.0088 54.9985C39.0088 56.5898 38.3766 58.116 37.2514 59.2412C36.1262 60.3664 34.6001 60.9985 33.0088 60.9985C31.4175 60.9985 29.8914 60.3664 28.7661 59.2412C27.6409 58.116 27.0088 56.5898 27.0088 54.9985C27.0088 53.4072 27.6409 51.8811 28.7661 50.7559C29.8914 49.6307 31.4175 48.9985 33.0088 48.9985ZM14.2318 39.9985C16.2209 39.9985 18.1286 40.7887 19.5351 42.1952C20.9416 43.6018 21.7318 45.5094 21.7318 47.4985C21.7318 49.4877 20.9416 51.3953 19.5351 52.8018C18.1286 54.2084 16.2209 54.9985 14.2318 54.9985C12.2427 54.9985 10.335 54.2084 8.92849 52.8018C7.52197 51.3953 6.73179 49.4877 6.73179 47.4985C6.73179 45.5094 7.52197 43.6018 8.92849 42.1952C10.335 40.7887 12.2427 39.9985 14.2318 39.9985V39.9985ZM48.9658 41.4985C50.5571 41.4985 52.0832 42.1307 53.2084 43.2559C54.3336 44.3811 54.9658 45.9072 54.9658 47.4985C54.9658 49.0898 54.3336 50.616 53.2084 51.7412C52.0832 52.8664 50.5571 53.4985 48.9658 53.4985C47.3745 53.4985 45.8484 52.8664 44.7231 51.7412C43.5979 50.616 42.9658 49.0898 42.9658 47.4985C42.9658 45.9072 43.5979 44.3811 44.7231 43.2559C45.8484 42.1307 47.3745 41.4985 48.9658 41.4985V41.4985ZM55.5088 28.9555C56.7023 28.9555 57.8469 29.4296 58.6908 30.2736C59.5347 31.1175 60.0088 32.2621 60.0088 33.4555C60.0088 34.649 59.5347 35.7936 58.6908 36.6375C57.8469 37.4814 56.7023 37.9555 55.5088 37.9555C54.3153 37.9555 53.1707 37.4814 52.3268 36.6375C51.4829 35.7936 51.0088 34.649 51.0088 33.4555C51.0088 32.2621 51.4829 31.1175 52.3268 30.2736C53.1707 29.4296 54.3153 28.9555 55.5088 28.9555ZM7.50879 18.9985C9.49791 18.9985 11.4056 19.7887 12.8121 21.1952C14.2186 22.6018 15.0088 24.5094 15.0088 26.4985C15.0088 28.4877 14.2186 30.3953 12.8121 31.8018C11.4056 33.2084 9.49791 33.9985 7.50879 33.9985C5.51967 33.9985 3.61201 33.2084 2.20549 31.8018C0.798965 30.3953 0.00878906 28.4877 0.00878906 26.4985C0.00878906 24.5094 0.798965 22.6018 2.20549 21.1952C3.61201 19.7887 5.51967 18.9985 7.50879 18.9985V18.9985ZM53.3668 16.6195C54.1624 16.6195 54.9255 16.9356 55.4881 17.4982C56.0507 18.0608 56.3668 18.8239 56.3668 19.6195C56.3668 20.4152 56.0507 21.1782 55.4881 21.7409C54.9255 22.3035 54.1624 22.6195 53.3668 22.6195C52.5711 22.6195 51.8081 22.3035 51.2455 21.7409C50.6829 21.1782 50.3668 20.4152 50.3668 19.6195C50.3668 18.8239 50.6829 18.0608 51.2455 17.4982C51.8081 16.9356 52.5711 16.6195 53.3668 16.6195ZM24.0088 0.998535C26.3957 0.998535 28.6849 1.94675 30.3728 3.63457C32.0606 5.3224 33.0088 7.61159 33.0088 9.99854C33.0088 12.3855 32.0606 14.6747 30.3728 16.3625C28.6849 18.0503 26.3957 18.9985 24.0088 18.9985C21.6218 18.9985 19.3327 18.0503 17.6448 16.3625C15.957 14.6747 15.0088 12.3855 15.0088 9.99854C15.0088 7.61159 15.957 5.3224 17.6448 3.63457C19.3327 1.94675 21.6218 0.998535 24.0088 0.998535V0.998535ZM46.5088 9.99854C46.9066 9.99854 47.2881 10.1566 47.5695 10.4379C47.8508 10.7192 48.0088 11.1007 48.0088 11.4985C48.0088 11.8964 47.8508 12.2779 47.5695 12.5592C47.2881 12.8405 46.9066 12.9985 46.5088 12.9985C46.111 12.9985 45.7294 12.8405 45.4481 12.5592C45.1668 12.2779 45.0088 11.8964 45.0088 11.4985C45.0088 11.1007 45.1668 10.7192 45.4481 10.4379C45.7294 10.1566 46.111 9.99854 46.5088 9.99854V9.99854Z" fill="#E91D76"/>
</svg>
